<svg width="16" height="16" viewBox="0 0 16 16" fill="none" xmlns="http://www.w3.org/2000/svg">
<path d="M3.48366 7.99992V7.84992H3.33366H1.33366C1.19663 7.84992 1.06521 7.79548 0.96832 7.69859C0.871427 7.6017 0.816992 7.47028 0.816992 7.33325V1.99992C0.816992 1.86289 0.871427 1.73147 0.96832 1.63458C1.06521 1.53769 1.19663 1.48325 1.33366 1.48325H14.667C14.804 1.48325 14.9354 1.53769 15.0323 1.63458C15.1292 1.73147 15.1837 1.86289 15.1837 1.99992V7.33325C15.1837 7.47028 15.1292 7.6017 15.0323 7.69859C14.9354 7.79548 14.804 7.84992 14.667 7.84992H12.667H12.517V7.99992V13.9999C12.517 14.1369 12.4626 14.2684 12.3657 14.3653C12.2688 14.4622 12.1374 14.5166 12.0003 14.5166H4.00033C3.8633 14.5166 3.73188 14.4622 3.63499 14.3653C3.53809 14.2684 3.48366 14.1369 3.48366 13.9999V7.99992ZM4.51699 13.3333V13.4833H4.66699H6.00033H6.15033V13.3333C6.15033 12.9398 5.99405 12.5626 5.71587 12.2844C5.43769 12.0062 5.0604 11.8499 4.66699 11.8499H4.51699V11.9999V13.3333ZM11.3337 13.4833H11.4837V13.3333V11.9999V11.8499H11.3337C10.9403 11.8499 10.563 12.0062 10.2848 12.2844C10.0066 12.5626 9.85033 12.9398 9.85033 13.3333V13.4833H10.0003H11.3337ZM11.3337 10.8166H11.4837V10.6666V5.33325V5.18325H11.3337H4.66699H4.51699V5.33325V10.6666V10.8166H4.66699C5.33445 10.8166 5.97458 11.0817 6.44654 11.5537C6.91851 12.0257 7.18366 12.6658 7.18366 13.3333V13.4833H7.33366H8.66699H8.81699V13.3333C8.81699 12.6658 9.08214 12.0257 9.55411 11.5537C10.0261 11.0817 10.6662 10.8166 11.3337 10.8166ZM14.0003 6.81659H14.1503V6.66659V2.66659V2.51659H14.0003H2.00033H1.85033V2.66659V6.66659V6.81659H2.00033H3.33366H3.48366V6.66659V4.66659C3.48366 4.52956 3.53809 4.39814 3.63499 4.30125C3.73188 4.20435 3.8633 4.14992 4.00033 4.14992H12.0003C12.1374 4.14992 12.2688 4.20435 12.3657 4.30125C12.4626 4.39814 12.517 4.52956 12.517 4.66659V6.66659V6.81659H12.667H14.0003ZM9.02813 9.53814C8.7239 9.74142 8.36622 9.84992 8.00033 9.84992C7.50967 9.84992 7.03912 9.65501 6.69218 9.30807C6.34524 8.96112 6.15033 8.49057 6.15033 7.99992C6.15033 7.63402 6.25883 7.27634 6.46211 6.97211C6.66539 6.66788 6.95432 6.43076 7.29236 6.29074C7.6304 6.15072 8.00238 6.11408 8.36124 6.18547C8.72011 6.25685 9.04975 6.43304 9.30847 6.69177C9.5672 6.9505 9.7434 7.28014 9.81478 7.639C9.88616 7.99787 9.84952 8.36984 9.7095 8.70788C9.56948 9.04593 9.33236 9.33486 9.02813 9.53814ZM8.45404 7.32089C8.31974 7.23115 8.16185 7.18325 8.00033 7.18325C7.78373 7.18325 7.57601 7.26929 7.42285 7.42245C7.2697 7.5756 7.18366 7.78333 7.18366 7.99992C7.18366 8.16144 7.23156 8.31933 7.32129 8.45363C7.41103 8.58793 7.53857 8.69261 7.6878 8.75442C7.83703 8.81623 8.00123 8.8324 8.15965 8.80089C8.31807 8.76938 8.46358 8.6916 8.5778 8.57739C8.69201 8.46318 8.76979 8.31766 8.8013 8.15924C8.83281 8.00082 8.81664 7.83662 8.75483 7.68739C8.69302 7.53817 8.58834 7.41062 8.45404 7.32089Z" fill="black" fill-opacity="0.7" stroke="white" stroke-width="0.3"/>
</svg>
