<svg width="18" height="18" viewBox="0 0 18 18" fill="none" xmlns="http://www.w3.org/2000/svg">
<path d="M9.7998 9.22222V3.66667C9.7998 2.33333 10.5998 1 12.1999 1C13.7999 1 14.5999 2.33333 14.5999 3.66667V14.3333" stroke="black"/>
<path d="M3.40022 17.0006H9.75477C9.77997 17.0006 9.80037 16.9783 9.80037 16.9499V9.55835C9.80037 6.30501 7.42672 3.66724 4.49825 3.66724C3.88877 3.66724 3.30425 3.93625 2.87328 4.41509C2.44231 4.89393 2.2002 5.54338 2.2002 6.22057V12.1117M12.5004 14.3339H16.7005L17.0005 17.0006H12.2004L12.5004 14.3339Z" stroke="black" stroke-linecap="round" stroke-linejoin="round"/>
<path d="M3.40006 17.0008C4.72557 17.0008 5.80011 15.8069 5.80011 14.3341C5.80011 12.8614 4.72557 11.6675 3.40006 11.6675C2.07454 11.6675 1 12.8614 1 14.3341C1 15.8069 2.07454 17.0008 3.40006 17.0008Z" stroke="black"/>
<path d="M5 3.66724V12.1117" stroke="black" stroke-linecap="round" stroke-linejoin="round"/>
</svg>
