<svg width="16" height="16" viewBox="0 0 16 16" fill="none" xmlns="http://www.w3.org/2000/svg">
<path d="M12 3.3426L12.0067 3.33527M14 2.66927V13.3359C14 13.6896 13.8595 14.0287 13.6095 14.2787C13.3594 14.5288 13.0203 14.6693 12.6667 14.6693H3.33333C2.97971 14.6693 2.64057 14.5288 2.39052 14.2787C2.14048 14.0287 2 13.6896 2 13.3359V2.66927C2 2.31565 2.14048 1.97651 2.39052 1.72646C2.64057 1.47641 2.97971 1.33594 3.33333 1.33594H12.6667C13.0203 1.33594 13.3594 1.47641 13.6095 1.72646C13.8595 1.97651 14 2.31565 14 2.66927Z" stroke="black" stroke-linecap="round" stroke-linejoin="round"/>
<path d="M8 12.6719C9.06087 12.6719 10.0783 12.2504 10.8284 11.5003C11.5786 10.7502 12 9.73274 12 8.67188C12 7.61101 11.5786 6.59359 10.8284 5.84345C10.0783 5.0933 9.06087 4.67188 8 4.67188C6.93913 4.67188 5.92172 5.0933 5.17157 5.84345C4.42143 6.59359 4 7.61101 4 8.67188C4 9.73274 4.42143 10.7502 5.17157 11.5003C5.92172 12.2504 6.93913 12.6719 8 12.6719V12.6719Z" stroke="black" stroke-linecap="round" stroke-linejoin="round"/>
<path d="M8 10.6719C7.46957 10.6719 6.96086 10.4612 6.58579 10.0861C6.21071 9.71102 6 9.20231 6 8.67188" stroke="black" stroke-linecap="round" stroke-linejoin="round"/>
</svg>
