<svg width="16" height="16" viewBox="0 0 16 16" fill="none" xmlns="http://www.w3.org/2000/svg">
<path d="M12.0026 4.66667H12.6693M1.33594 7.33333L1.8626 9.056C1.94598 9.3291 2.11483 9.56822 2.3443 9.73816C2.57377 9.9081 2.85173 9.99988 3.13727 10H4.0026M14.6693 7.33333L14.1426 9.056C14.0592 9.3291 13.8904 9.56822 13.6609 9.73816C13.4314 9.9081 13.1535 9.99988 12.8679 10H12.0026M6.33594 9.66667C6.33594 9.66667 6.33594 14.3333 4.0026 14.3333M9.66927 9.66667C9.66927 9.66667 9.66927 14.3333 12.0026 14.3333M8.0026 9.66667V14.3333M14.6693 2.4V7.33333H1.33594V2.4C1.33594 2.29391 1.37808 2.19217 1.45309 2.11716C1.52811 2.04214 1.62985 2 1.73594 2H14.2693C14.3754 2 14.4771 2.04214 14.5521 2.11716C14.6271 2.19217 14.6693 2.29391 14.6693 2.4V2.4Z" stroke="black" stroke-linecap="round" stroke-linejoin="round"/>
</svg>
