<svg width="16" height="16" viewBox="0 0 16 16" fill="none" xmlns="http://www.w3.org/2000/svg">
<path d="M11.7014 1.5H4.30469C3.7524 1.5 3.30469 1.94772 3.30469 2.5V12.6933C3.30469 13.2456 3.7524 13.6933 4.30469 13.6933H11.7014C12.2536 13.6933 12.7014 13.2456 12.7014 12.6933V2.5C12.7014 1.94772 12.2536 1.5 11.7014 1.5Z" stroke="black" stroke-linecap="round" stroke-linejoin="round"/>
<path d="M3.30469 6.56563H12.698M5.15802 5.28563V3.26562M5.15802 9.72229V7.70229M4.21469 13.6956V14.0456C4.21468 14.1662 4.26234 14.2818 4.34726 14.3674C4.43218 14.4529 4.54748 14.5014 4.66802 14.5023H5.49135C5.61247 14.5023 5.72862 14.4542 5.81427 14.3685C5.89991 14.2829 5.94802 14.1667 5.94802 14.0456V13.6956M10.0514 13.6956V14.0456C10.0514 14.1667 10.0995 14.2829 10.1851 14.3685C10.2708 14.4542 10.3869 14.5023 10.508 14.5023H11.3347C11.4558 14.5023 11.572 14.4542 11.6576 14.3685C11.7432 14.2829 11.7914 14.1667 11.7914 14.0456V13.6956" stroke="black" stroke-linecap="round" stroke-linejoin="round"/>
</svg>
