<svg width="16" height="16" viewBox="0 0 16 16" fill="none" xmlns="http://www.w3.org/2000/svg">
<g clip-path="url(#clip0_1_2404)">
<path d="M11 1C11.2652 1 11.5196 1.10536 11.7071 1.29289C11.8946 1.48043 12 1.73478 12 2V14C12 14.2652 11.8946 14.5196 11.7071 14.7071C11.5196 14.8946 11.2652 15 11 15H5C4.73478 15 4.48043 14.8946 4.29289 14.7071C4.10536 14.5196 4 14.2652 4 14V2C4 1.73478 4.10536 1.48043 4.29289 1.29289C4.48043 1.10536 4.73478 1 5 1H11ZM5 0C4.46957 0 3.96086 0.210714 3.58579 0.585786C3.21071 0.960859 3 1.46957 3 2V14C3 14.5304 3.21071 15.0391 3.58579 15.4142C3.96086 15.7893 4.46957 16 5 16H11C11.5304 16 12.0391 15.7893 12.4142 15.4142C12.7893 15.0391 13 14.5304 13 14V2C13 1.46957 12.7893 0.960859 12.4142 0.585786C12.0391 0.210714 11.5304 0 11 0L5 0Z" fill="black"/>
<path d="M8.11024 14.447C8.25759 14.447 8.39889 14.3885 8.50308 14.2843C8.60727 14.1801 8.6658 14.0388 8.6658 13.8915C8.6658 13.7442 8.60727 13.6028 8.50308 13.4987C8.39889 13.3945 8.25759 13.3359 8.11024 13.3359C7.9629 13.3359 7.82159 13.3945 7.71741 13.4987C7.61322 13.6028 7.55469 13.7442 7.55469 13.8915C7.55469 14.0388 7.61322 14.1801 7.71741 14.2843C7.82159 14.3885 7.9629 14.447 8.11024 14.447Z" fill="black"/>
</g>
<defs>
<clipPath id="clip0_1_2404">
<rect width="16" height="16" fill="white"/>
</clipPath>
</defs>
</svg>
