<svg width="16" height="16" viewBox="0 0 16 16" fill="none" xmlns="http://www.w3.org/2000/svg">
<g clip-path="url(#clip0_1_2878)">
<path d="M14.667 3.33329H1.33366C1.15685 3.33329 0.987279 3.40353 0.862254 3.52855C0.73723 3.65358 0.666992 3.82315 0.666992 3.99996V6.66663C0.668152 7.07926 0.796911 7.48143 1.03562 7.818C1.27432 8.15458 1.61129 8.40908 2.00033 8.54663V14.6666C2.00033 14.8434 2.07056 15.013 2.19559 15.138C2.32061 15.2631 2.49018 15.3333 2.66699 15.3333H13.3337C13.5105 15.3333 13.68 15.2631 13.8051 15.138C13.9301 15.013 14.0003 14.8434 14.0003 14.6666V8.54663C14.3894 8.40908 14.7263 8.15458 14.965 7.818C15.2037 7.48143 15.3325 7.07926 15.3337 6.66663V3.99996C15.3337 3.82315 15.2634 3.65358 15.1384 3.52855C15.0134 3.40353 14.8438 3.33329 14.667 3.33329ZM10.0003 4.66663H11.3337V6.66663C11.3337 6.84344 11.2634 7.01301 11.1384 7.13803C11.0134 7.26305 10.8438 7.33329 10.667 7.33329C10.4902 7.33329 10.3206 7.26305 10.1956 7.13803C10.0706 7.01301 10.0003 6.84344 10.0003 6.66663V4.66663ZM7.33366 4.66663H8.66699V6.66663C8.66699 6.84344 8.59675 7.01301 8.47173 7.13803C8.34671 7.26305 8.17714 7.33329 8.00033 7.33329C7.82351 7.33329 7.65394 7.26305 7.52892 7.13803C7.4039 7.01301 7.33366 6.84344 7.33366 6.66663V4.66663ZM4.66699 4.66663H6.00033V6.66663C6.00033 6.84344 5.93009 7.01301 5.80506 7.13803C5.68004 7.26305 5.51047 7.33329 5.33366 7.33329C5.15685 7.33329 4.98728 7.26305 4.86225 7.13803C4.73723 7.01301 4.66699 6.84344 4.66699 6.66663V4.66663ZM2.66699 7.33329C2.49018 7.33329 2.32061 7.26305 2.19559 7.13803C2.07056 7.01301 2.00033 6.84344 2.00033 6.66663V4.66663H3.33366V6.66663C3.33366 6.84344 3.26342 7.01301 3.1384 7.13803C3.01337 7.26305 2.8438 7.33329 2.66699 7.33329ZM9.33366 14H6.66699V12.6666C6.66699 12.313 6.80747 11.9739 7.05752 11.7238C7.30756 11.4738 7.6467 11.3333 8.00033 11.3333C8.35395 11.3333 8.69309 11.4738 8.94313 11.7238C9.19318 11.9739 9.33366 12.313 9.33366 12.6666V14ZM12.667 14H10.667V12.6666C10.667 11.9594 10.386 11.2811 9.88594 10.781C9.38585 10.2809 8.70757 9.99996 8.00033 9.99996C7.29308 9.99996 6.6148 10.2809 6.11471 10.781C5.61461 11.2811 5.33366 11.9594 5.33366 12.6666V14H3.33366V8.54663C3.57871 8.45567 3.80475 8.32004 4.00033 8.14663C4.36701 8.4746 4.8417 8.65591 5.33366 8.65591C5.82561 8.65591 6.30031 8.4746 6.66699 8.14663C7.03367 8.4746 7.50837 8.65591 8.00033 8.65591C8.49228 8.65591 8.96698 8.4746 9.33366 8.14663C9.70034 8.4746 10.175 8.65591 10.667 8.65591C11.1589 8.65591 11.6336 8.4746 12.0003 8.14663C12.1959 8.32004 12.4219 8.45567 12.667 8.54663V14ZM14.0003 6.66663C14.0003 6.84344 13.9301 7.01301 13.8051 7.13803C13.68 7.26305 13.5105 7.33329 13.3337 7.33329C13.1568 7.33329 12.9873 7.26305 12.8623 7.13803C12.7372 7.01301 12.667 6.84344 12.667 6.66663V4.66663H14.0003V6.66663ZM2.86699 1.99996H13.3337C13.5105 1.99996 13.68 1.92972 13.8051 1.8047C13.9301 1.67967 14.0003 1.5101 14.0003 1.33329C14.0003 1.15648 13.9301 0.986912 13.8051 0.861888C13.68 0.736864 13.5105 0.666626 13.3337 0.666626H2.86699C2.69018 0.666626 2.52061 0.736864 2.39559 0.861888C2.27056 0.986912 2.20033 1.15648 2.20033 1.33329C2.20033 1.5101 2.27056 1.67967 2.39559 1.8047C2.52061 1.92972 2.69018 1.99996 2.86699 1.99996Z" fill="#65778F"/>
</g>
<defs>
<clipPath id="clip0_1_2878">
<rect width="16" height="16" fill="white"/>
</clipPath>
</defs>
</svg>
