<svg width="20" height="15" viewBox="0 0 20 15" fill="none" xmlns="http://www.w3.org/2000/svg">
<path d="M3.125 14.375C3.125 14.2092 3.19085 14.0503 3.30806 13.9331C3.42527 13.8158 3.58424 13.75 3.75 13.75H16.25C16.4158 13.75 16.5747 13.8158 16.6919 13.9331C16.8092 14.0503 16.875 14.2092 16.875 14.375C16.875 14.5408 16.8092 14.6997 16.6919 14.8169C16.5747 14.9342 16.4158 15 16.25 15H3.75C3.58424 15 3.42527 14.9342 3.30806 14.8169C3.19085 14.6997 3.125 14.5408 3.125 14.375ZM17.4887 1.25L17.5187 1.25125C17.7523 1.26715 17.9806 1.32784 18.1912 1.43C18.3429 1.5006 18.4732 1.61015 18.5687 1.7475C18.6525 1.8725 18.75 2.09375 18.75 2.5V9.98875L18.7487 10.0188C18.7327 10.2523 18.672 10.4806 18.57 10.6913C18.4993 10.8429 18.3898 10.9732 18.2525 11.0687C18.1275 11.1525 17.9062 11.25 17.5 11.25H2.51125L2.48125 11.2487C2.24771 11.2327 2.01942 11.172 1.80875 11.07C1.65709 10.9994 1.52684 10.8898 1.43125 10.7525C1.3475 10.6275 1.25 10.4062 1.25 10V2.51125L1.25125 2.48125C1.26715 2.24769 1.32784 2.01938 1.43 1.80875C1.50065 1.65709 1.61019 1.52684 1.7475 1.43125C1.8725 1.3475 2.09375 1.25 2.5 1.25H17.4887ZM17.5 0H2.5C0 0 0 2.5 0 2.5V10C0 12.5 2.5 12.5 2.5 12.5H17.5C20 12.5 20 10 20 10V2.5C20 0 17.5 0 17.5 0Z" fill="black"/>
</svg>
