<svg width="16" height="16" viewBox="0 0 16 16" fill="none" xmlns="http://www.w3.org/2000/svg">
<g clip-path="url(#clip0_1_2870)">
<path d="M5.33333 12.6667C5.68696 12.6667 6.02609 12.5262 6.27614 12.2761C6.52619 12.0261 6.66667 11.687 6.66667 11.3333C6.66667 10.9797 6.52619 10.6406 6.27614 10.3905C6.02609 10.1405 5.68696 10 5.33333 10C4.97971 10 4.64057 10.1405 4.39052 10.3905C4.14048 10.6406 4 10.9797 4 11.3333C4 11.687 4.14048 12.0261 4.39052 12.2761C4.64057 12.5262 4.97971 12.6667 5.33333 12.6667V12.6667ZM12 12.6667C12.3536 12.6667 12.6928 12.5262 12.9428 12.2761C13.1929 12.0261 13.3333 11.687 13.3333 11.3333C13.3333 10.9797 13.1929 10.6406 12.9428 10.3905C12.6928 10.1405 12.3536 10 12 10C11.6464 10 11.3072 10.1405 11.0572 10.3905C10.8071 10.6406 10.6667 10.9797 10.6667 11.3333C10.6667 11.687 10.8071 12.0261 11.0572 12.2761C11.3072 12.5262 11.6464 12.6667 12 12.6667V12.6667Z" stroke="#65778F" stroke-width="1.5" stroke-miterlimit="1.5" stroke-linecap="round" stroke-linejoin="round"/>
<path d="M6.6974 11.3333H9.9974V4.4C9.9974 4.29391 9.95526 4.19217 9.88024 4.11716C9.80523 4.04214 9.70348 4 9.5974 4H0.664062M3.76406 11.3333H2.3974C2.34487 11.3333 2.29285 11.323 2.24432 11.3029C2.19579 11.2828 2.1517 11.2533 2.11455 11.2162C2.07741 11.179 2.04795 11.1349 2.02784 11.0864C2.00774 11.0379 1.9974 10.9859 1.9974 10.9333V7.66667" stroke="#65778F" stroke-width="1.5" stroke-linecap="round"/>
<path d="M1.32812 6H3.99479" stroke="#65778F" stroke-width="1.5" stroke-linecap="round" stroke-linejoin="round"/>
<path d="M10 6H13.74C13.8173 6.00002 13.893 6.02245 13.9578 6.06457C14.0227 6.10669 14.0739 6.1667 14.1053 6.23733L15.2987 8.92267C15.3214 8.97366 15.3332 9.02884 15.3333 9.08467V10.9333C15.3333 10.9859 15.323 11.0379 15.3029 11.0864C15.2828 11.1349 15.2533 11.179 15.2162 11.2162C15.179 11.2533 15.1349 11.2828 15.0864 11.3029C15.0379 11.323 14.9859 11.3333 14.9333 11.3333H13.6667M10 11.3333H10.6667" stroke="#65778F" stroke-width="1.5" stroke-linecap="round"/>
</g>
<defs>
<clipPath id="clip0_1_2870">
<rect width="16" height="16" fill="white"/>
</clipPath>
</defs>
</svg>
